<svg xmlns="http://www.w3.org/2000/svg" width="805" height="600"><rect width="805" height="600" x="0" y="0" fill="#f3e1fd" id="backgorund"/><g id="viz"><clipPath id="serieClipPath"><rect x="-50" y="-17" width="805" height="600"/></clipPath><g transform="translate(0,0)"><g transform="translate(50,17)" clip-path="url(#serieClipPath)"><g id="axis"><g transform="translate(0,554)" fill="none" font-size="10" font-family="sans-serif" text-anchor="middle"><path class="domain" stroke="currentColor" d="M0,6V0H727V6"/><g class="tick" opacity="1" transform="translate(0,0)"><line stroke="currentColor" y2="6"/><text fill="currentColor" y="9" dy="0.71em">Fri 07</text></g><g class="tick" opacity="1" transform="translate(46.90322580645161,0)"><line stroke="currentColor" y2="6"/><text fill="currentColor" y="9" dy="0.71em">Oct 09</text></g><g class="tick" opacity="1" transform="translate(93.80645161290322,0)"><line stroke="currentColor" y2="6"/><text fill="currentColor" y="9" dy="0.71em">Tue 11</text></g><g class="tick" opacity="1" transform="translate(140.70967741935485,0)"><line stroke="currentColor" y2="6"/><text fill="currentColor" y="9" dy="0.71em">Thu 13</text></g><g class="tick" opacity="1" transform="translate(187.61290322580643,0)"><line stroke="currentColor" y2="6"/><text fill="currentColor" y="9" dy="0.71em">Sat 15</text></g><g class="tick" opacity="1" transform="translate(234.51612903225805,0)"><line stroke="currentColor" y2="6"/><text fill="currentColor" y="9" dy="0.71em">Mon 17</text></g><g class="tick" opacity="1" transform="translate(281.4193548387097,0)"><line stroke="currentColor" y2="6"/><text fill="currentColor" y="9" dy="0.71em">Wed 19</text></g><g class="tick" opacity="1" transform="translate(328.3225806451613,0)"><line stroke="currentColor" y2="6"/><text fill="currentColor" y="9" dy="0.71em">Fri 21</text></g><g class="tick" opacity="1" transform="translate(375.22580645161287,0)"><line stroke="currentColor" y2="6"/><text fill="currentColor" y="9" dy="0.71em">Oct 23</text></g><g class="tick" opacity="1" transform="translate(422.12903225806457,0)"><line stroke="currentColor" y2="6"/><text fill="currentColor" y="9" dy="0.71em">Tue 25</text></g><g class="tick" opacity="1" transform="translate(469.0322580645161,0)"><line stroke="currentColor" y2="6"/><text fill="currentColor" y="9" dy="0.71em">Thu 27</text></g><g class="tick" opacity="1" transform="translate(515.9354838709678,0)"><line stroke="currentColor" y2="6"/><text fill="currentColor" y="9" dy="0.71em">Sat 29</text></g><g class="tick" opacity="1" transform="translate(562.8387096774194,0)"><line stroke="currentColor" y2="6"/><text fill="currentColor" y="9" dy="0.71em">Mon 31</text></g><g class="tick" opacity="1" transform="translate(586.2903225806451,0)"><line stroke="currentColor" y2="6"/><text fill="currentColor" y="9" dy="0.71em">November</text></g><g class="tick" opacity="1" transform="translate(633.1935483870968,0)"><line stroke="currentColor" y2="6"/><text fill="currentColor" y="9" dy="0.71em">Thu 03</text></g><g class="tick" opacity="1" transform="translate(680.0967741935483,0)"><line stroke="currentColor" y2="6"/><text fill="currentColor" y="9" dy="0.71em">Sat 05</text></g><g class="tick" opacity="1" transform="translate(727,0)"><line stroke="currentColor" y2="6"/><text fill="currentColor" y="9" dy="0.71em">Mon 07</text></g><text x="727" dy="-5" text-anchor="end" style="font-family: Arial, sans-serif; font-size: 12px; fill: rgb(123, 123, 123); font-weight: bold;">日期</text></g><g transform="translate(0,0)" fill="none" font-size="10" font-family="sans-serif" text-anchor="end"><path class="domain" stroke="currentColor" d="M0,554V0"/><g class="tick" opacity="1" transform="translate(0,554)"><line stroke="currentColor" x2="-6"/><text fill="currentColor" x="-9" dy="0.32em">370</text></g><g class="tick" opacity="1" transform="translate(0,514.4285714285714)"><line stroke="currentColor" x2="-6"/><text fill="currentColor" x="-9" dy="0.32em">375</text></g><g class="tick" opacity="1" transform="translate(0,474.8571428571429)"><line stroke="currentColor" x2="-6"/><text fill="currentColor" x="-9" dy="0.32em">380</text></g><g class="tick" opacity="1" transform="translate(0,435.2857142857143)"><line stroke="currentColor" x2="-6"/><text fill="currentColor" x="-9" dy="0.32em">385</text></g><g class="tick" opacity="1" transform="translate(0,395.7142857142857)"><line stroke="currentColor" x2="-6"/><text fill="currentColor" x="-9" dy="0.32em">390</text></g><g class="tick" opacity="1" transform="translate(0,356.1428571428571)"><line stroke="currentColor" x2="-6"/><text fill="currentColor" x="-9" dy="0.32em">395</text></g><g class="tick" opacity="1" transform="translate(0,316.57142857142856)"><line stroke="currentColor" x2="-6"/><text fill="currentColor" x="-9" dy="0.32em">400</text></g><g class="tick" opacity="1" transform="translate(0,277)"><line stroke="currentColor" x2="-6"/><text fill="currentColor" x="-9" dy="0.32em">405</text></g><g class="tick" opacity="1" transform="translate(0,237.42857142857144)"><line stroke="currentColor" x2="-6"/><text fill="currentColor" x="-9" dy="0.32em">410</text></g><g class="tick" opacity="1" transform="translate(0,197.85714285714283)"><line stroke="currentColor" x2="-6"/><text fill="currentColor" x="-9" dy="0.32em">415</text></g><g class="tick" opacity="1" transform="translate(0,158.28571428571428)"><line stroke="currentColor" x2="-6"/><text fill="currentColor" x="-9" dy="0.32em">420</text></g><g class="tick" opacity="1" transform="translate(0,118.71428571428572)"><line stroke="currentColor" x2="-6"/><text fill="currentColor" x="-9" dy="0.32em">425</text></g><g class="tick" opacity="1" transform="translate(0,79.14285714285717)"><line stroke="currentColor" x2="-6"/><text fill="currentColor" x="-9" dy="0.32em">430</text></g><g class="tick" opacity="1" transform="translate(0,39.571428571428555)"><line stroke="currentColor" x2="-6"/><text fill="currentColor" x="-9" dy="0.32em">435</text></g><g class="tick" opacity="1" transform="translate(0,0)"><line stroke="currentColor" x2="-6"/><text fill="currentColor" x="-9" dy="0.32em">440</text></g><text x="4" text-anchor="start" dominant-baseline="hanging" style="font-family: Arial, sans-serif; font-size: 12px; fill: rgb(123, 123, 123); font-weight: bold;">收盤</text></g></g><g id="viz"><g><path d="M0,15.828571428571435C46.90322580645161,15.828571428571435,46.90322580645161,304.70000000000005,93.80645161290322,304.70000000000005C105.53225806451613,304.70000000000005,105.53225806451613,336.3571428571429,117.25806451612902,336.3571428571429C128.98387096774195,336.3571428571429,128.98387096774195,356.1428571428571,140.70967741935485,356.1428571428571C152.43548387096774,356.1428571428571,152.43548387096774,221.60000000000002,164.16129032258064,221.60000000000002C199.33870967741933,221.60000000000002,199.33870967741933,340.31428571428575,234.51612903225805,340.31428571428575C246.24193548387098,340.31428571428575,246.24193548387098,261.1714285714286,257.9677419354839,261.1714285714286C269.6935483870968,261.1714285714286,269.6935483870968,352.18571428571425,281.4193548387097,352.18571428571425C293.14516129032256,352.18571428571425,293.14516129032256,336.3571428571429,304.8709677419355,336.3571428571429C316.5967741935484,336.3571428571429,316.5967741935484,399.6714285714286,328.3225806451613,399.6714285714286C363.5,399.6714285714286,363.5,419.45714285714286,398.67741935483866,419.45714285714286C410.4032258064516,419.45714285714286,410.4032258064516,546.0857142857143,422.12903225806457,546.0857142857143C433.85483870967744,546.0857142857143,433.85483870967744,506.5142857142857,445.5806451612903,506.5142857142857C457.3064516129032,506.5142857142857,457.3064516129032,431.3285714285714,469.0322580645161,431.3285714285714C480.758064516129,431.3285714285714,480.758064516129,478.81428571428575,492.4838709677419,478.81428571428575C527.6612903225806,478.81428571428575,527.6612903225806,395.7142857142857,562.8387096774194,395.7142857142857C574.5645161290322,395.7142857142857,574.5645161290322,383.84285714285716,586.2903225806451,383.84285714285716C598.016129032258,383.84285714285716,598.016129032258,356.1428571428571,609.741935483871,356.1428571428571C621.4677419354839,356.1428571428571,621.4677419354839,443.20000000000005,633.1935483870968,443.20000000000005C644.9193548387098,443.20000000000005,644.9193548387098,459.0285714285714,656.6451612903226,459.0285714285714C691.8225806451612,459.0285714285714,691.8225806451612,395.7142857142857,727,395.7142857142857" stroke="#1f77b4" fill="none"/><text font-family="sans-serif" font-size="10" class="labels" x="0" y="15.828571428571435" dx="0" dy="-4" text-anchor="middle"/></g></g></g><text y="4" x="4" style="font-family: Arial, sans-serif; font-size: 12px; fill: black; font-weight: bold; dominant-baseline: hanging;"/></g><g id="grid"><rect x="0" y="0" width="805" height="600" fill="none" stroke="#ccc"/></g></g></svg>